<svg
    xmlns="http://www.w3.org/2000/svg"
    viewBox="0 0 512 512"
    id="vector">
    <path
        id="path"
        d="M 316.469 0 C 208.996 0 121.559 87.438 121.559 194.91 C 121.559 232.398 132.207 267.437 150.622 297.187 L 0.001 448.394 L 63.606 511.999 L 214.235 360.784 C 243.977 379.182 279.001 389.819 316.469 389.819 C 423.942 389.819 511.379 302.385 511.379 194.909 C 511.379 87.436 423.945 -0.001 316.469 -0.001 Z M 63.566 469.551 L 42.367 448.352 L 66.098 424.531 L 87.297 445.73 Z M 108.457 424.484 L 87.258 403.285 L 168.543 321.684 C 175.059 329.278 182.148 336.364 189.746 342.879 Z M 316.469 359.836 C 225.531 359.836 151.543 285.852 151.543 194.91 C 151.543 103.972 225.531 29.984 316.469 29.984 C 407.41 29.984 481.395 103.972 481.395 194.91 C 481.395 285.851 407.411 359.836 316.469 359.836 Z M 316.469 359.836"
        fill="#fff"/>
    <path
        id="path_1"
        d="M 316.469 59.973 C 242.063 59.973 181.531 120.508 181.531 194.911 C 181.531 269.317 242.062 329.849 316.469 329.849 C 390.876 329.849 451.407 269.318 451.407 194.911 C 451.407 120.509 390.876 59.973 316.469 59.973 Z M 316.469 299.863 C 258.598 299.863 211.516 252.781 211.516 194.91 C 211.516 137.039 258.598 89.957 316.469 89.957 C 374.34 89.957 421.422 137.039 421.422 194.91 C 421.422 252.781 374.34 299.863 316.469 299.863 Z M 316.469 299.863"
        fill="#fff"/>
    <path
        id="path_2"
        d="M 301.477 218.688 L 267.098 184.309 L 245.895 205.512 L 301.477 261.094 L 387.043 175.528 L 365.84 154.325 Z M 301.477 218.688"
        fill="#fff"/>
</svg>
