<svg
    xmlns="http://www.w3.org/2000/svg"
    viewBox="0 0 20 20"
    id="vector">
    <g
        id="group"
        transform="translate(-2 -2)">
        <path
            id="path"
            d="M 9 16 L 11 16 L 11 8 L 9 8 L 9 16 Z M 12 2 C 6.48 2 2 6.48 2 12 C 2 17.52 6.48 22 12 22 C 17.52 22 22 17.52 22 12 C 22 6.48 17.52 2 12 2 Z M 12 20 C 7.59 20 4 16.41 4 12 C 4 7.59 7.59 4 12 4 C 16.41 4 20 7.59 20 12 C 20 16.41 16.41 20 12 20 Z M 13 16 L 15 16 L 15 8 L 13 8 L 13 16 Z"
            fill="#fff"/>
    </g>
</svg>
