<svg
    xmlns="http://www.w3.org/2000/svg"
    viewBox="0 0 458 458"
    id="vector">
    <g
        id="group"
        transform="translate(25 25)">
        <path
            id="path"
            d="M 346.8 61.2 C 311.1 22.95 260.1 0 204 0 C 91.8 0 0 91.8 0 204 C 0 316.2 91.8 408 204 408 C 298.35 408 377.4 341.7 400.35 255 L 346.8 255 C 326.4 313.65 270.3 357 204 357 C 119.85 357 51 288.15 51 204 C 51 119.85 119.85 51 204 51 C 247.35 51 283.05 68.85 311.1 96.9 L 229.5 178.5 L 408 178.5 L 408 0 L 346.8 61.2 Z"
            fill="#fff"/>
    </g>
</svg>
