<svg
    xmlns="http://www.w3.org/2000/svg"
    viewBox="0 0 20 20"
    id="vector">
    <g
        id="group"
        transform="translate(-2 -2)">
        <path
            id="path"
            d="M 14.59 8 L 12 10.59 L 9.41 8 L 8 9.41 L 10.59 12 L 8 14.59 L 9.41 16 L 12 13.41 L 14.59 16 L 16 14.59 L 13.41 12 L 16 9.41 L 14.59 8 Z M 12 2 C 6.47 2 2 6.47 2 12 C 2 17.53 6.47 22 12 22 C 17.53 22 22 17.53 22 12 C 22 6.47 17.53 2 12 2 Z M 12 20 C 7.59 20 4 16.41 4 12 C 4 7.59 7.59 4 12 4 C 16.41 4 20 7.59 20 12 C 20 16.41 16.41 20 12 20 Z"
            fill="#fff"/>
    </g>
</svg>
