<svg
    xmlns="http://www.w3.org/2000/svg"
    viewBox="0 0 510 510"
    id="vector">
    <path
        id="path"
        d="M 255 0 C 114.75 0 0 114.75 0 255 C 0 395.25 114.75 510 255 510 C 395.25 510 510 395.25 510 255 C 510 114.75 395.25 0 255 0 Z M 51 255 C 51 142.8 142.8 51 255 51 C 300.9 51 344.25 66.3 379.95 94.35 L 94.35 379.95 C 66.3 344.25 51 300.9 51 255 Z M 255 459 C 209.1 459 165.75 443.7 130.05 415.65 L 415.65 130.05 C 443.7 165.75 459 209.1 459 255 C 459 367.2 367.2 459 255 459 Z"
        fill="#fff"/>
</svg>
