<svg
    xmlns="http://www.w3.org/2000/svg"
    viewBox="0 0 20 20"
    id="vector">
    <g
        id="group"
        transform="translate(-2 -2)">
        <path
            id="path"
            d="M 12 2 C 6.48 2 2 6.48 2 12 C 2 17.52 6.48 22 12 22 C 17.52 22 22 17.52 22 12 C 22 6.48 17.52 2 12 2 Z M 12 20 C 7.58 20 4 16.42 4 12 C 4 7.58 7.58 4 12 4 C 16.42 4 20 7.58 20 12 C 20 16.42 16.42 20 12 20 Z"
            fill="#fff"/>
    </g>
    <g
        id="group_1"
        transform="translate(1 2) scale(0.7 0.7)">
        <path
            id="path_1"
            d="M 9 16.17 L 4.83 12 L 3.41 13.41 L 9 19 L 21 7 L 19.59 5.59 Z"
            fill="#fff"/>
    </g>
</svg>
