<svg
    xmlns="http://www.w3.org/2000/svg"
    viewBox="0 0 459 459"
    id="vector">
    <path
        id="path"
        d="M 0 229.5 C 0 285.6 22.95 336.6 61.2 372.3 L 0 433.5 L 153 433.5 L 153 280.5 L 96.9 336.6 C 68.85 311.1 51 272.85 51 229.5 C 51 163.2 94.35 107.1 153 84.15 L 153 33.15 C 66.3 56.1 0 135.15 0 229.5 Z M 204 357 L 255 357 L 255 306 L 204 306 L 204 357 Z M 459 25.5 L 306 25.5 L 306 178.5 L 362.1 122.4 C 390.151 147.9 408 186.15 408 229.5 C 408 295.8 364.65 351.9 306 374.85 L 306 428.4 C 392.7 405.45 459 326.4 459 232.049 C 459 175.949 436.05 124.949 397.8 89.249 L 459 25.5 Z M 204 255 L 255 255 L 255 102 L 204 102 L 204 255 Z"
        fill="#fff"/>
</svg>
